<svg xmlns="http://www.w3.org/2000/svg" width="567.382" height="198.855" viewBox="0 0 567.382 198.855">
  <g id="Vestey_RGB_White" data-name="Vestey RGB White" transform="translate(-40.3 -39.1)">
    <path id="Path_22" data-name="Path 22" d="M98.668,167.4l12.708-23.838L64.4,45.147H40.3Zm48.64-82.119c9.991-25.5,6.222-46.186,6.222-46.186s-19.105,8.151-29.622,35.144c-9.991,25.5-7.449,52.759-7.449,52.759s21.647-18.141,30.849-41.717m27.607,25.679a28.667,28.667,0,0,1,27.957-20.6c14.11,0,24.276,7.362,27.168,20.6Zm-.964,16.652h76.072V119.9c0-27.168-20.07-46.887-47.238-46.887-26.993,0-47.764,21.121-47.764,48.114,0,26.643,19.456,47.413,48.465,47.413,17.7,0,30.937-7.449,39.438-19.281l-15.951-9.29c-5.258,6.836-13.409,11.043-23.488,11.043-15.95.175-26.905-9.2-29.535-23.4M283.764,100.36c0-6.047,5.171-11.043,15.951-11.043,9.728,0,16.564,3.856,20.946,10.429l16.564-9.027c-7.712-11.218-19.631-17.791-37.51-17.791-21.822-.175-35.845,13.234-35.845,27.782,0,18.93,16.564,24.1,32.164,27.168,11.744,2.542,22.786,4.207,22.786,11.744,0,6.4-5.872,11.919-17.265,11.919-11.043,0-18.93-4.557-24.276-13.234l-17.616,9.553c7.888,13.584,21.121,20.771,41.016,20.771,25.5.175,37.861-15.6,37.861-29.359,0-19.281-17.44-24.452-32.865-27.782-14.022-3.067-21.91-4.557-21.91-11.13M401.64,167.317h2.98v-18.58c-16.915,0-19.456-2.542-19.456-19.105V93.086H404.62v-17.7H385.164v-28.4l-19.807,4.207V75.471h-15.6V93.086h15.6v36.721c-.088,28.658,8.326,37.51,36.283,37.51M434.593,111.4a28.667,28.667,0,0,1,27.957-20.6c14.11,0,24.276,7.362,27.168,20.6Zm-.964,16.739H509.7V120.43c0-27.168-20.07-46.887-47.238-46.887-26.993,0-47.764,21.121-47.764,48.114,0,26.643,19.456,47.413,48.465,47.413,17.7,0,30.937-7.449,39.438-19.281l-15.951-9.29c-5.258,6.836-13.409,11.043-23.487,11.043-15.863.088-26.905-9.2-29.535-23.4m174.053-52.5H586.911l-25.328,63.8-26.818-63.8H513.644L551.68,162.76l-16.213,37.247,21.384.438Z" transform="translate(0 0)" fill="#3b625a"/>
    <path id="Path_23" data-name="Path 23" d="M454.8,259.887l17.616-32.69v-5H447v5.7h18.492l-17.265,31.989Zm-31.726-25.678a7.012,7.012,0,1,1,7.011,7.1,6.921,6.921,0,0,1-7.011-7.1m-4.294,25.678h7.274l12.62-15.775c2.542-3.33,4.294-5.872,4.294-9.816A12.509,12.509,0,0,0,430,221.589c-7.712,0-12.971,5.609-12.971,12.708a12.048,12.048,0,0,0,11.744,12.094h.614Zm-26.73-11.568c0-3.593,2.717-6.573,7.011-6.573,4.382,0,7.011,2.98,7.011,6.573s-2.629,6.573-7.011,6.573c-4.294,0-7.011-2.98-7.011-6.573m1.578-16.476c0-2.8,2.191-5,5.434-5,3.33,0,5.434,2.191,5.434,5,0,2.717-2.1,5-5.434,5a5.106,5.106,0,0,1-5.434-5m18.4,16.564c0-4.382-1.928-7.625-5.346-9.465a9.359,9.359,0,0,0,3.505-7.449c0-5.7-4.469-9.9-11.13-9.9-6.485,0-11.043,4.207-11.043,9.9a9.18,9.18,0,0,0,3.594,7.449,10.264,10.264,0,0,0-5.434,9.465c0,6.923,5.521,11.919,12.971,11.919,7.449.088,12.883-4.908,12.883-11.919m-39.35,11.481h5.872V222.2H366.9v5.784h5.872v31.9Zm-33.741-22.173a6.908,6.908,0,0,1,7.1,5.872H331.317a7.563,7.563,0,0,1,7.625-5.872m-13.584,8.852c0,8.063,5.784,13.76,13.847,13.76,5.609,0,9.728-2.366,12.094-6.135l-4.47-3.155a8.3,8.3,0,0,1-7.625,4.031c-4.382,0-7.888-2.892-8.151-7.186h20.859a16.284,16.284,0,0,0,.088-1.928c0-8.5-5.872-13.146-12.8-13.146a13.428,13.428,0,0,0-13.847,13.76m-4.031,6.485-5.083-2.717a7.893,7.893,0,0,1-7.274,4.645c-4.733,0-8.063-3.681-8.063-8.413s3.33-8.413,8.063-8.413a7.893,7.893,0,0,1,7.274,4.645l5.083-2.717a14.066,14.066,0,0,0-26.38,6.485c0,7.888,6.047,13.76,14.022,13.76a13.587,13.587,0,0,0,12.357-7.274m-56,6.836H271.2V242.359a6.988,6.988,0,0,1,6.485-4.207c3.681,0,5.872,2.629,5.872,6.836v14.9h5.872V244.025c0-6.836-4.031-11.218-10.429-11.218a9.94,9.94,0,0,0-7.8,3.33v-2.8h-5.872Zm-13.672,0h5.872V233.332h-5.872Zm6.836-35.231a3.9,3.9,0,1,0-3.944,3.944,3.909,3.909,0,0,0,3.944-3.944M218.7,253.665c2.279,4.032,7.274,6.748,13.409,6.748,7.362,0,12.532-4.294,12.532-10.867.088-5.609-3.33-8.939-8.852-11.043l-3.856-1.4c-3.856-1.4-5.7-2.629-5.7-5.434,0-2.717,2.717-4.382,5.96-4.382a9.054,9.054,0,0,1,7.1,3.506l4.382-4.207a14.337,14.337,0,0,0-11.393-5.171c-7.011,0-12.27,4.031-12.27,10.6,0,5.171,2.892,8.414,8.939,10.6l4.119,1.49c3.593,1.314,5.346,3.067,5.346,5.7,0,2.8-2.629,4.645-6.135,4.645a10.41,10.41,0,0,1-8.764-4.82Z" transform="translate(-22.05 -22.458)" fill="#5bc500"/>
  </g>
</svg>
